<svg width="20" height="20" viewBox="0 0 20 20" fill="none" xmlns="http://www.w3.org/2000/svg">
<g clip-path="url(#clip0_1_517)">
<path d="M14.4548 19.4239C13.5626 19.4239 12.6173 19.243 11.6191 18.8811C10.627 18.5192 9.61317 17.9889 8.57747 17.2901C7.54178 16.5976 6.52167 15.7522 5.51717 14.7539C4.51267 13.7494 3.66102 12.7293 2.96224 11.6936C2.26969 10.6517 1.74249 9.63156 1.38062 8.6333C1.02498 7.63504 0.847169 6.68981 0.847169 5.79761C0.847169 4.98652 0.965712 4.29397 1.2028 3.71997C1.43989 3.14597 1.8236 2.62188 2.35392 2.14771C2.39136 2.11651 2.42879 2.08531 2.46623 2.05412C2.5099 2.01668 2.55046 1.97925 2.58789 1.94181C3.21805 1.38029 3.82948 1.10577 4.4222 1.11825C4.75912 1.12449 5.08355 1.22743 5.39551 1.42708C5.70747 1.6205 6.01006 1.92622 6.3033 2.34424L8.19377 5.06763C8.48701 5.48565 8.63363 5.92863 8.63363 6.39657C8.63987 6.85826 8.44645 7.28564 8.05339 7.67871L7.34212 8.39933C7.23606 8.5054 7.17679 8.60834 7.16431 8.70817C7.15183 8.80176 7.17679 8.90158 7.23918 9.00765C7.36396 9.2073 7.51994 9.42567 7.70711 9.66276C7.90053 9.89361 8.10954 10.1338 8.33415 10.3834C8.565 10.6329 8.80208 10.8794 9.04541 11.1227C9.27626 11.3536 9.53206 11.5969 9.81283 11.8527C10.0936 12.1023 10.3619 12.3331 10.6177 12.5452C10.8797 12.7574 11.095 12.9165 11.2634 13.0225C11.3695 13.0912 11.4693 13.1192 11.5629 13.1068C11.6627 13.0943 11.7657 13.035 11.8717 12.929L12.5924 12.2083C12.9854 11.8215 13.4128 11.6312 13.8745 11.6375C14.3424 11.6437 14.7854 11.7903 15.2035 12.0773L17.9268 13.9678C18.3449 14.2548 18.6537 14.5574 18.8534 14.8756C19.053 15.1875 19.1528 15.512 19.1528 15.8489C19.1528 16.1421 19.0842 16.4447 18.9469 16.7567C18.8159 17.0624 18.61 17.3712 18.3293 17.6832C18.2918 17.7206 18.2544 17.7581 18.217 17.7955C18.1858 17.8392 18.1514 17.8797 18.114 17.9172C17.6398 18.4537 17.1157 18.8374 16.5417 19.0683C15.9677 19.3054 15.2721 19.4239 14.4548 19.4239ZM14.4641 17.9827C14.982 17.9764 15.4593 17.8828 15.896 17.7019C16.3327 17.521 16.7102 17.2464 17.0284 16.8783C17.0596 16.8471 17.0846 16.8191 17.1033 16.7941C17.1282 16.7629 17.1532 16.7317 17.1781 16.7005C17.4277 16.4135 17.5525 16.1296 17.5525 15.8489C17.5525 15.7116 17.5213 15.5837 17.4589 15.4652C17.4028 15.3466 17.306 15.2406 17.1688 15.147L14.4454 13.3314C14.2957 13.2378 14.1428 13.191 13.9868 13.191C13.8308 13.191 13.6811 13.2659 13.5376 13.4156L12.714 14.2392C12.3896 14.5636 12.0433 14.7258 11.6752 14.7258C11.3071 14.7196 10.9671 14.601 10.6551 14.3702C10.4118 14.1893 10.1341 13.9678 9.82218 13.7057C9.51647 13.4374 9.20763 13.1629 8.89567 12.8822C8.58995 12.5952 8.31855 12.3331 8.08146 12.096C7.71959 11.7404 7.33276 11.3286 6.92098 10.8607C6.5092 10.3927 6.16916 9.97784 5.90088 9.61597C5.66379 9.30401 5.54525 8.96398 5.54525 8.59587C5.54525 8.22152 5.70747 7.87524 6.0319 7.55705L6.85547 6.73348C6.99897 6.58998 7.07072 6.44024 7.07072 6.28426C7.07696 6.12828 7.03017 5.97542 6.93034 5.82568L5.11475 3.1023C4.94629 2.84649 4.71544 2.71859 4.4222 2.71859C4.28494 2.71859 4.14144 2.7529 3.9917 2.82153C3.8482 2.88393 3.70782 2.97439 3.57056 3.09294C3.53936 3.11789 3.50817 3.14285 3.47697 3.16781C3.45201 3.18652 3.42394 3.21148 3.39274 3.24268C3.02463 3.56087 2.75011 3.93834 2.56917 4.37508C2.38824 4.80558 2.29153 5.27976 2.27905 5.79761C2.26657 6.58998 2.45063 7.45098 2.83122 8.38062C3.21181 9.30401 3.72966 10.2336 4.38477 11.1695C5.04612 12.0991 5.78234 12.9695 6.59342 13.7806C7.40451 14.5854 8.26552 15.3092 9.17643 15.9518C10.0873 16.5882 10.9983 17.0905 11.9092 17.4586C12.8201 17.8267 13.6717 18.0014 14.4641 17.9827Z" fill="white"/>
</g>
<defs>
<clipPath id="clip0_1_517">
<rect width="20" height="20" fill="white"/>
</clipPath>
</defs>
</svg>
