<svg width="120" height="120" viewBox="0 0 120 120" fill="none" xmlns="http://www.w3.org/2000/svg">
<g opacity="0.5">
<path d="M97.23 38.99H14.28V88.36H97.23V38.99Z" fill="#EEF3FF" stroke="#396FFF" stroke-width="1.97" stroke-miterlimit="10"/>
<path d="M88.43 45.58H23.6C22.42 45.58 21.83 46.18 21.83 47.38V79.75C21.83 80.95 22.42 81.55 23.6 81.55H88.43C89.61 81.55 90.2 80.95 90.2 79.75V47.38C90.2 46.18 89.61 45.58 88.43 45.58ZM60.13 75.67C58.84 76.79 57.42 77.35 55.86 77.35C54.3 77.35 53 76.79 51.76 75.67C50.51 74.55 49.52 72.95 48.76 70.89C48.01 68.82 47.63 66.37 47.63 63.52C47.63 60.67 48.01 58.29 48.76 56.24C49.52 54.18 50.52 52.6 51.76 51.47C53 50.35 54.37 49.79 55.86 49.79C57.35 49.79 58.84 50.35 60.13 51.47C61.42 52.59 62.45 54.18 63.23 56.24C64.01 58.3 64.4 60.72 64.4 63.52C64.4 66.32 64.01 68.82 63.23 70.89C62.45 72.96 61.42 74.55 60.13 75.67ZM25.37 77.28V49.81C25.37 49.34 25.59 49.11 26.04 49.11H48.26C47.05 50.43 46.03 52.07 45.23 54.04C44.13 56.73 43.58 59.88 43.58 63.51C43.58 67.14 44.13 70.33 45.23 73.03C46.04 75.02 47.06 76.68 48.29 78.01H26.03C25.59 78.01 25.36 77.77 25.36 77.28H25.37ZM86.67 77.28C86.67 77.77 86.43 78.01 85.94 78.01H63.67C64.92 76.68 65.96 75.02 66.78 73.03C67.89 70.33 68.45 67.16 68.45 63.51C68.45 59.86 67.89 56.73 66.78 54.04C65.96 52.07 64.93 50.43 63.69 49.11H85.94C86.43 49.11 86.67 49.34 86.67 49.81V77.28Z" fill="#396FFF"/>
<path d="M99.22 36.53C98.7 36.01 98 35.75 97.14 35.75H14.87C14 35.75 13.31 36.01 12.79 36.53C12.27 37.05 12.01 37.75 12.01 38.61V88.51C12.01 89.35 12.27 90.04 12.79 90.58C13.31 91.12 14.01 91.38 14.87 91.38H97.14C98.01 91.38 98.7 91.11 99.22 90.58C99.74 90.05 100 89.36 100 88.51V38.62C100 37.75 99.74 37.06 99.22 36.54V36.53ZM93.43 83.85C93.43 84.5 93.12 84.82 92.5 84.82H19.5C18.88 84.82 18.57 84.5 18.57 83.85V43.28C18.57 42.64 18.88 42.31 19.5 42.31H92.5C93.12 42.31 93.43 42.63 93.43 43.28V83.85Z" fill="#396FFF"/>
<path d="M97.23 29.11H14.28V78.48H97.23V29.11Z" fill="#EEF3FF" stroke="#396FFF" stroke-width="1.97" stroke-miterlimit="10"/>
<path d="M88.43 35.71H23.6C22.42 35.71 21.83 36.31 21.83 37.51V69.88C21.83 71.08 22.42 71.68 23.6 71.68H88.43C89.61 71.68 90.2 71.08 90.2 69.88V37.51C90.2 36.31 89.61 35.71 88.43 35.71ZM60.13 65.79C58.84 66.91 57.42 67.47 55.86 67.47C54.3 67.47 53 66.91 51.76 65.79C50.51 64.67 49.52 63.07 48.76 61.01C48.01 58.94 47.63 56.49 47.63 53.64C47.63 50.79 48.01 48.41 48.76 46.36C49.52 44.3 50.52 42.72 51.76 41.59C53 40.47 54.37 39.91 55.86 39.91C57.35 39.91 58.84 40.47 60.13 41.59C61.42 42.71 62.45 44.3 63.23 46.36C64.01 48.42 64.4 50.84 64.4 53.64C64.4 56.44 64.01 58.94 63.23 61.01C62.45 63.08 61.42 64.67 60.13 65.79ZM25.37 67.41V39.94C25.37 39.47 25.59 39.24 26.04 39.24H48.26C47.05 40.56 46.03 42.2 45.23 44.17C44.13 46.86 43.58 50.01 43.58 53.64C43.58 57.27 44.13 60.46 45.23 63.16C46.04 65.15 47.06 66.81 48.29 68.14H26.03C25.59 68.14 25.36 67.9 25.36 67.41H25.37ZM86.67 67.41C86.67 67.9 86.43 68.14 85.94 68.14H63.67C64.92 66.81 65.96 65.15 66.78 63.16C67.89 60.46 68.45 57.29 68.45 53.64C68.45 49.99 67.89 46.86 66.78 44.17C65.96 42.2 64.93 40.56 63.69 39.24H85.94C86.43 39.24 86.67 39.47 86.67 39.94V67.41Z" fill="#396FFF"/>
<path d="M99.22 26.66C98.7 26.14 98 25.88 97.14 25.88H14.87C14 25.88 13.31 26.14 12.79 26.66C12.27 27.18 12.01 27.88 12.01 28.74V78.64C12.01 79.48 12.27 80.17 12.79 80.71C13.31 81.25 14.01 81.51 14.87 81.51H97.14C98.01 81.51 98.7 81.24 99.22 80.71C99.74 80.18 100 79.49 100 78.64V28.74C100 27.87 99.74 27.18 99.22 26.66ZM93.43 73.98C93.43 74.63 93.12 74.95 92.5 74.95H19.5C18.88 74.95 18.57 74.63 18.57 73.98V33.41C18.57 32.77 18.88 32.44 19.5 32.44H92.5C93.12 32.44 93.43 32.76 93.43 33.41V73.98Z" fill="#396FFF"/>
<path d="M97.23 19.24H14.28V68.61H97.23V19.24Z" fill="#EEF3FF" stroke="#396FFF" stroke-width="1.97" stroke-miterlimit="10"/>
<path d="M88.43 25.83H23.6C22.42 25.83 21.83 26.43 21.83 27.63V60C21.83 61.2 22.42 61.8 23.6 61.8H88.43C89.61 61.8 90.2 61.2 90.2 60V27.63C90.2 26.43 89.61 25.83 88.43 25.83ZM60.13 55.92C58.84 57.04 57.42 57.6 55.86 57.6C54.3 57.6 53 57.04 51.76 55.92C50.51 54.8 49.52 53.2 48.76 51.14C48.01 49.07 47.63 46.62 47.63 43.77C47.63 40.92 48.01 38.54 48.76 36.49C49.52 34.43 50.52 32.85 51.76 31.72C53 30.6 54.37 30.04 55.86 30.04C57.35 30.04 58.84 30.6 60.13 31.72C61.42 32.84 62.45 34.43 63.23 36.49C64.01 38.55 64.4 40.97 64.4 43.77C64.4 46.57 64.01 49.07 63.23 51.14C62.45 53.21 61.42 54.8 60.13 55.92ZM25.37 57.53V30.07C25.37 29.6 25.59 29.37 26.04 29.37H48.26C47.05 30.69 46.03 32.33 45.23 34.3C44.13 36.99 43.58 40.14 43.58 43.77C43.58 47.4 44.13 50.59 45.23 53.29C46.04 55.28 47.06 56.94 48.29 58.27H26.03C25.59 58.27 25.36 58.03 25.36 57.54L25.37 57.53ZM86.67 57.53C86.67 58.02 86.43 58.26 85.94 58.26H63.67C64.92 56.93 65.96 55.27 66.78 53.28C67.89 50.58 68.45 47.41 68.45 43.76C68.45 40.11 67.89 36.98 66.78 34.29C65.96 32.32 64.93 30.68 63.69 29.36H85.94C86.43 29.36 86.67 29.59 86.67 30.06V57.53Z" fill="#396FFF"/>
<path d="M99.22 16.78C98.7 16.26 98 16 97.14 16H14.87C14 16 13.31 16.26 12.79 16.78C12.27 17.3 12.01 18 12.01 18.86V68.76C12.01 69.6 12.27 70.29 12.79 70.83C13.31 71.37 14.01 71.63 14.87 71.63H97.14C98.01 71.63 98.7 71.36 99.22 70.83C99.74 70.3 100 69.61 100 68.76V18.87C100 18 99.74 17.31 99.22 16.79V16.78ZM93.43 64.1C93.43 64.75 93.12 65.07 92.5 65.07H19.5C18.88 65.07 18.57 64.75 18.57 64.1V23.53C18.57 22.89 18.88 22.56 19.5 22.56H92.5C93.12 22.56 93.43 22.88 93.43 23.53V64.1Z" fill="#396FFF"/>
</g>
<path d="M84.79 103.19C84.45 103.19 84.07 103.13 83.65 103C83.29 102.89 82.91 102.74 82.53 102.55C79.21 100.73 76.4 99.1 74.14 97.68C71.81 96.22 69.9 94.77 68.45 93.36C66.93 91.88 65.82 90.24 65.13 88.5C64.45 86.78 64.1 84.76 64.1 82.5V65.31C64.1 63.57 64.48 62.28 65.27 61.37C65.96 60.57 66.95 59.9 68.3 59.32C68.82 59.1 69.55 58.81 70.48 58.46C71.4 58.12 72.41 57.75 73.53 57.35L79.82 55.12C80.73 54.8 81.44 54.55 81.95 54.38C82.44 54.24 82.88 54.14 83.34 54.06C83.84 53.97 84.33 53.92 84.8 53.92C85.29 53.92 85.8 53.97 86.31 54.07C86.75 54.16 87.16 54.25 87.55 54.35C88.11 54.5 88.85 54.74 89.78 55.06C90.69 55.37 91.69 55.73 92.8 56.12C93.9 56.52 95 56.91 96.1 57.32C97.21 57.73 98.22 58.1 99.14 58.45C100.07 58.81 100.79 59.09 101.3 59.31C102.66 59.87 103.67 60.55 104.36 61.37C105.13 62.29 105.51 63.57 105.51 65.3V82.49C105.51 84.75 105.17 86.77 104.48 88.49C103.79 90.24 102.67 91.87 101.15 93.34C99.71 94.74 97.8 96.19 95.47 97.66C93.22 99.08 90.41 100.71 87.13 102.51C86.69 102.73 86.32 102.88 85.96 102.99C85.53 103.12 85.15 103.18 84.79 103.18V103.19Z" fill="#396FFF"/>
<path d="M84.79 55.43C85.18 55.43 85.59 55.47 86.01 55.55C86.43 55.63 86.82 55.72 87.18 55.81C87.68 55.95 88.38 56.17 89.28 56.48C90.18 56.79 91.18 57.14 92.28 57.54C93.38 57.93 94.48 58.33 95.58 58.73C96.68 59.13 97.68 59.51 98.59 59.86C99.5 60.21 100.2 60.49 100.7 60.7C101.84 61.17 102.67 61.72 103.2 62.35C103.73 62.98 104 63.97 104 65.32V82.51C104 84.59 103.69 86.4 103.08 87.96C102.47 89.51 101.47 90.96 100.1 92.29C98.73 93.62 96.92 95 94.67 96.42C92.42 97.84 89.66 99.44 86.41 101.23C86.11 101.38 85.82 101.5 85.54 101.58C85.26 101.66 85.01 101.7 84.8 101.7C84.6 101.7 84.36 101.66 84.08 101.58C83.8 101.5 83.51 101.38 83.2 101.23C79.94 99.44 77.19 97.84 74.94 96.43C72.69 95.02 70.88 93.65 69.51 92.3C68.14 90.96 67.15 89.51 66.53 87.96C65.92 86.41 65.61 84.59 65.61 82.51V65.32C65.61 63.97 65.88 62.99 66.42 62.36C66.96 61.74 67.79 61.19 68.91 60.7C69.41 60.49 70.11 60.21 71.02 59.87C71.93 59.53 72.94 59.16 74.04 58.77C75.15 58.38 76.24 57.99 77.34 57.6C78.43 57.21 79.43 56.86 80.33 56.54C81.23 56.22 81.93 55.98 82.43 55.81C82.81 55.7 83.2 55.61 83.61 55.54C84.02 55.46 84.41 55.43 84.79 55.43ZM84.79 52.43C84.23 52.43 83.65 52.49 83.06 52.59C82.56 52.68 82.08 52.79 81.62 52.92L81.55 52.94L81.48 52.96C80.97 53.13 80.25 53.38 79.33 53.7L76.34 54.76C75.25 55.15 74.15 55.54 73.04 55.93C71.92 56.33 70.89 56.7 69.97 57.05C69.01 57.41 68.28 57.7 67.74 57.93C66.16 58.61 65 59.41 64.15 60.39C63.13 61.57 62.61 63.22 62.61 65.31V82.5C62.61 84.95 62.99 87.15 63.74 89.05C64.51 90.99 65.74 92.8 67.41 94.43C68.93 95.92 70.93 97.44 73.35 98.95C75.64 100.38 78.47 102.02 81.76 103.83L81.81 103.86L81.86 103.89C82.32 104.12 82.78 104.3 83.22 104.44C83.79 104.61 84.3 104.69 84.79 104.69C85.28 104.69 85.81 104.61 86.38 104.44C86.83 104.31 87.29 104.12 87.74 103.9L87.79 103.87L87.84 103.84C91.14 102.03 93.98 100.38 96.26 98.94C98.68 97.42 100.67 95.9 102.19 94.43C103.86 92.81 105.1 91 105.87 89.05C106.62 87.15 107 84.95 107 82.5V65.31C107 63.24 106.49 61.59 105.5 60.41C104.65 59.4 103.45 58.59 101.85 57.92C101.34 57.7 100.59 57.41 99.66 57.05C98.74 56.7 97.72 56.32 96.6 55.91C95.49 55.51 94.39 55.11 93.29 54.71C92.18 54.31 91.16 53.95 90.25 53.64C89.28 53.31 88.53 53.07 87.96 52.91H87.93L87.9 52.89C87.49 52.79 87.06 52.69 86.6 52.6C85.99 52.48 85.38 52.42 84.79 52.42V52.43Z" fill="#EEF3FF"/>
<path d="M84.4 96.83V59.77C84.29 59.79 84.18 59.8 84.06 59.83C83.94 59.85 83.79 59.9 83.6 59.98C82.99 60.22 82.27 60.5 81.43 60.81C80.59 61.12 79.69 61.45 78.72 61.8C77.76 62.15 76.79 62.5 75.81 62.85C74.83 63.2 73.9 63.53 73.01 63.85C72.12 64.17 71.34 64.45 70.66 64.69C70.34 64.8 70.13 64.95 70.02 65.16C69.91 65.37 69.86 65.66 69.86 66.06V81.68C69.86 83.36 70.09 84.79 70.55 85.97C71.01 87.14 71.77 88.23 72.81 89.23C73.85 90.23 75.25 91.29 77.01 92.4C78.77 93.51 80.92 94.84 83.48 96.39C83.68 96.51 83.85 96.61 83.99 96.67C84.13 96.74 84.27 96.79 84.39 96.84L84.4 96.83Z" fill="white"/>
</svg>
