<svg width="20" height="21" viewBox="0 0 20 21" fill="none" xmlns="http://www.w3.org/2000/svg">
<path d="M10 20.9102C8.63932 20.9102 7.35677 20.6497 6.15234 20.1289C4.95443 19.6081 3.89648 18.8887 2.97852 17.9707C2.06055 17.0527 1.34115 15.9948 0.820312 14.7969C0.299479 13.5924 0.0390625 12.3099 0.0390625 10.9492C0.0390625 9.58854 0.299479 8.30924 0.820312 7.11133C1.34115 5.9069 2.05729 4.8457 2.96875 3.92773C3.88672 3.00977 4.94466 2.29036 6.14258 1.76953C7.34701 1.2487 8.62956 0.988281 9.99023 0.988281C11.3509 0.988281 12.6335 1.2487 13.8379 1.76953C15.0423 2.29036 16.1035 3.00977 17.0215 3.92773C17.9395 4.8457 18.6589 5.9069 19.1797 7.11133C19.7005 8.30924 19.9609 9.58854 19.9609 10.9492C19.9609 12.3099 19.7005 13.5924 19.1797 14.7969C18.6589 15.9948 17.9395 17.0527 17.0215 17.9707C16.1035 18.8887 15.0423 19.6081 13.8379 20.1289C12.64 20.6497 11.3607 20.9102 10 20.9102ZM10 12.7656C10.5078 12.7656 10.765 12.4987 10.7715 11.9648L10.918 6.65234C10.9245 6.39844 10.8366 6.18685 10.6543 6.01758C10.4785 5.8418 10.2572 5.75391 9.99023 5.75391C9.7168 5.75391 9.49219 5.83854 9.31641 6.00781C9.14714 6.17708 9.06576 6.38867 9.07227 6.64258L9.19922 11.9648C9.21224 12.4987 9.47917 12.7656 10 12.7656ZM10 16.0371C10.293 16.0371 10.5469 15.9362 10.7617 15.7344C10.9831 15.5326 11.0938 15.2852 11.0938 14.9922C11.0938 14.6992 10.9831 14.4518 10.7617 14.25C10.5469 14.0417 10.293 13.9375 10 13.9375C9.70052 13.9375 9.44336 14.0417 9.22852 14.25C9.01367 14.4583 8.90625 14.7057 8.90625 14.9922C8.90625 15.2852 9.01367 15.5326 9.22852 15.7344C9.44987 15.9362 9.70703 16.0371 10 16.0371Z" fill="#1A1E27"/>
</svg>
