<svg width="121" height="120" viewBox="0 0 121 120" fill="none" xmlns="http://www.w3.org/2000/svg">
<g opacity="0.5">
<path d="M43.1833 54.33H12.3333C12.3333 62.86 19.2433 69.75 27.7633 69.75C36.2833 69.75 43.1833 62.86 43.1833 54.33Z" fill="#396FFF"/>
<path d="M27.7633 27.91L38.5733 52.61H41.6233C41.6233 52.41 41.5933 52.22 41.5033 52.03L29.3433 24.27H48.4333C48.1633 23.45 48.0133 22.57 48.0133 21.66C48.0133 20.75 48.1633 19.88 48.4333 19.06H31.4033C28.5633 19.06 26.2633 21.34 26.2033 24.16L14.0233 52.03C13.9333 52.22 13.9033 52.41 13.9033 52.61H16.9533L27.7633 27.91Z" fill="#396FFF"/>
<path d="M83.3133 24.27L71.1633 52.03C71.0733 52.22 71.0433 52.41 71.0433 52.61H74.0933L84.9033 27.91L95.7133 52.61H98.7633C98.7633 52.41 98.7333 52.22 98.6433 52.03L86.4633 24.18C86.4133 21.35 84.1133 19.06 81.2633 19.06H64.2133C64.4833 19.88 64.6433 20.74 64.6433 21.66C64.6433 22.58 64.4933 23.45 64.2133 24.27H83.3033H83.3133Z" fill="#396FFF"/>
<path d="M69.4933 54.33C69.4933 62.86 76.4033 69.75 84.9133 69.75C93.4233 69.75 100.333 62.86 100.333 54.33H69.4933Z" fill="#396FFF"/>
<path d="M56.3333 29.98C55.0533 29.98 53.8433 29.69 52.7633 29.16V78.04H59.8933V29.17C58.8133 29.69 57.6033 29.97 56.3233 29.97L56.3333 29.98Z" fill="#396FFF"/>
<path d="M39.5933 83.54V85.5H73.0933V83.54C73.0933 81.18 71.1833 79.26 68.8133 79.26H43.8633C41.5033 79.26 39.5833 81.17 39.5833 83.54H39.5933Z" fill="#396FFF"/>
<path d="M53.4733 27.68C54.3333 28.11 55.3133 28.34 56.3333 28.34C57.3533 28.34 58.3333 28.11 59.1933 27.69C60.8233 26.92 62.0933 25.5 62.6633 23.76C62.8833 23.1 63.0033 22.4 63.0033 21.67C63.0033 20.94 62.8833 20.25 62.6633 19.59C61.8033 16.93 59.2933 15.01 56.3333 15.01C53.3733 15.01 50.8633 16.93 50.0033 19.59C49.7833 20.25 49.6633 20.94 49.6633 21.67C49.6633 22.4 49.7833 23.11 50.0033 23.76C50.5733 25.5 51.8433 26.91 53.4733 27.68Z" fill="#396FFF"/>
<path d="M81.0233 86.69H31.6533C28.9833 86.69 26.8233 88.85 26.8233 91.52V94.41H85.8433V91.52C85.8433 88.85 83.6833 86.69 81.0133 86.69H81.0233Z" fill="#396FFF"/>
</g>
<path d="M85.1233 104.21C84.7833 104.21 84.4033 104.15 83.9833 104.02C83.6233 103.91 83.2433 103.76 82.8633 103.57C79.5433 101.75 76.7433 100.12 74.4733 98.7C72.1433 97.24 70.2333 95.78 68.7833 94.38C67.2633 92.9 66.1533 91.26 65.4633 89.52C64.7833 87.8 64.4333 85.78 64.4333 83.52V66.33C64.4333 64.59 64.8133 63.3 65.6033 62.39C66.2933 61.59 67.2833 60.92 68.6333 60.34C69.1533 60.12 69.8833 59.83 70.8133 59.48C71.7333 59.14 72.7433 58.77 73.8633 58.37L80.1533 56.14C81.0633 55.82 81.7733 55.57 82.2833 55.4C82.7733 55.26 83.2133 55.16 83.6733 55.08C84.1733 54.99 84.6633 54.94 85.1333 54.94C85.6233 54.94 86.1333 54.99 86.6433 55.09C87.0833 55.18 87.4933 55.27 87.8833 55.37C88.4533 55.53 89.1733 55.75 90.1133 56.08C91.0233 56.39 92.0233 56.75 93.1333 57.14C94.2333 57.54 95.3333 57.93 96.4433 58.34C97.5533 58.75 98.5633 59.12 99.4833 59.47C100.413 59.83 101.133 60.11 101.643 60.33C103.003 60.89 104.013 61.57 104.703 62.39C105.473 63.31 105.853 64.59 105.853 66.32V83.51C105.853 85.77 105.503 87.79 104.823 89.51C104.133 91.26 103.013 92.89 101.493 94.36C100.053 95.76 98.1433 97.21 95.8133 98.68C93.5633 100.1 90.7533 101.73 87.4733 103.53C87.0433 103.75 86.6633 103.9 86.3033 104.01C85.8733 104.14 85.4933 104.2 85.1333 104.2L85.1233 104.21Z" fill="#396FFF"/>
<path d="M85.1233 56.44C85.5133 56.44 85.9233 56.48 86.3433 56.56C86.7633 56.64 87.1533 56.73 87.5133 56.82C88.0133 56.96 88.7133 57.18 89.6133 57.49C90.5133 57.8 91.5133 58.15 92.6133 58.55C93.7133 58.94 94.8133 59.34 95.9133 59.74C97.0133 60.14 98.0133 60.52 98.9233 60.87C99.8333 61.22 100.533 61.5 101.033 61.71C102.173 62.18 103.003 62.73 103.533 63.36C104.063 63.99 104.333 64.98 104.333 66.33V83.52C104.333 85.6 104.023 87.41 103.413 88.97C102.803 90.52 101.803 91.97 100.433 93.3C99.0633 94.63 97.2533 96.01 95.0033 97.43C92.7533 98.85 89.9933 100.45 86.7433 102.24C86.4433 102.39 86.1533 102.51 85.8733 102.59C85.5933 102.67 85.3433 102.71 85.1333 102.71C84.9333 102.71 84.6933 102.67 84.4133 102.59C84.1333 102.51 83.8433 102.39 83.5333 102.24C80.2733 100.45 77.5233 98.85 75.2733 97.44C73.0233 96.03 71.2133 94.66 69.8433 93.31C68.4733 91.97 67.4833 90.52 66.8633 88.97C66.2533 87.42 65.9433 85.6 65.9433 83.52V66.33C65.9433 64.98 66.2133 64 66.7533 63.37C67.2933 62.75 68.1233 62.2 69.2433 61.71C69.7433 61.5 70.4433 61.22 71.3533 60.88C72.2633 60.54 73.2733 60.17 74.3733 59.78C75.4833 59.39 76.5733 59 77.6733 58.61C78.7633 58.22 79.7633 57.87 80.6633 57.55C81.5633 57.23 82.2633 56.99 82.7633 56.82C83.1433 56.71 83.5333 56.62 83.9433 56.55C84.3533 56.47 84.7433 56.44 85.1233 56.44ZM85.1233 53.44C84.5633 53.44 83.9833 53.5 83.3933 53.6C82.8933 53.69 82.4133 53.8 81.9533 53.93L81.8833 53.95L81.8133 53.97C81.3033 54.14 80.5833 54.39 79.6633 54.71L76.6733 55.77C75.5833 56.16 74.4833 56.55 73.3733 56.94C72.2533 57.34 71.2233 57.71 70.3033 58.06C69.3433 58.42 68.6133 58.71 68.0733 58.94C66.4933 59.62 65.3333 60.42 64.4833 61.4C63.4633 62.58 62.9433 64.23 62.9433 66.32V83.51C62.9433 85.96 63.3233 88.16 64.0733 90.06C64.8433 92 66.0733 93.81 67.7433 95.44C69.2633 96.93 71.2633 98.45 73.6833 99.96C75.9733 101.39 78.8033 103.03 82.0933 104.84L82.1433 104.87L82.1933 104.9C82.6533 105.13 83.1133 105.31 83.5533 105.45C84.1233 105.62 84.6333 105.7 85.1233 105.7C85.6133 105.7 86.1433 105.62 86.7133 105.45C87.1633 105.32 87.6233 105.13 88.0733 104.91L88.1233 104.88L88.1733 104.85C91.4733 103.04 94.3133 101.39 96.5933 99.95C99.0133 98.43 101.003 96.91 102.523 95.44C104.193 93.82 105.433 92.01 106.203 90.06C106.953 88.16 107.333 85.96 107.333 83.51V66.32C107.333 64.25 106.823 62.6 105.833 61.42C104.983 60.41 103.783 59.6 102.183 58.93C101.673 58.71 100.923 58.42 99.9933 58.06C99.0733 57.71 98.0533 57.33 96.9333 56.92C95.8233 56.52 94.7233 56.12 93.6233 55.72C92.5133 55.32 91.4933 54.96 90.5833 54.65C89.6133 54.32 88.8633 54.08 88.2933 53.92H88.2633L88.2333 53.9C87.8233 53.8 87.3933 53.7 86.9333 53.61C86.3233 53.49 85.7133 53.43 85.1233 53.43V53.44Z" fill="#EEF3FF"/>
<path d="M84.7333 97.84V60.78C84.6233 60.8 84.5133 60.81 84.3933 60.84C84.2733 60.86 84.1233 60.91 83.9333 60.99C83.3233 61.23 82.6033 61.51 81.7633 61.82C80.9233 62.13 80.0233 62.46 79.0533 62.81C78.0933 63.16 77.1233 63.51 76.1433 63.86C75.1633 64.21 74.2333 64.54 73.3433 64.86C72.4533 65.18 71.6733 65.46 70.9933 65.7C70.6733 65.81 70.4633 65.96 70.3533 66.17C70.2433 66.38 70.1933 66.67 70.1933 67.07V82.69C70.1933 84.37 70.4233 85.8 70.8833 86.98C71.3433 88.15 72.1033 89.24 73.1433 90.24C74.1833 91.24 75.5833 92.3 77.3433 93.41C79.1033 94.52 81.2533 95.85 83.8133 97.4C84.0133 97.52 84.1833 97.62 84.3233 97.68C84.4633 97.75 84.6033 97.8 84.7233 97.85L84.7333 97.84Z" fill="white"/>
</svg>
