<svg width="24" height="24" viewBox="0 0 24 24" fill="none" xmlns="http://www.w3.org/2000/svg">
<path fill-rule="evenodd" clip-rule="evenodd" d="M2 6.10005C2 5.65822 2.41973 5.30005 2.9375 5.30005H21.0625C21.5803 5.30005 22 5.65822 22 6.10005C22 6.54188 21.5803 6.90005 21.0625 6.90005H2.9375C2.41973 6.90005 2 6.54188 2 6.10005Z" fill="#8D94A0"/>
<path fill-rule="evenodd" clip-rule="evenodd" d="M8 11.7001C8 11.2583 8.36162 10.9001 8.80769 10.9001H21.1923C21.6384 10.9001 22 11.2583 22 11.7001C22 12.142 21.6384 12.5001 21.1923 12.5001H8.80769C8.36162 12.5001 8 12.142 8 11.7001Z" fill="#8D94A0"/>
<path fill-rule="evenodd" clip-rule="evenodd" d="M6 17.3C6 16.8582 6.41328 16.5 6.92308 16.5H21.0769C21.5867 16.5 22 16.8582 22 17.3C22 17.7418 21.5867 18.1 21.0769 18.1H6.92308C6.41328 18.1 6 17.7418 6 17.3Z" fill="#8D94A0"/>
</svg>
