<svg width="121" height="120" viewBox="0 0 121 120" fill="none" xmlns="http://www.w3.org/2000/svg">
<g opacity="0.5">
<path d="M98.8067 91.52C97.5667 92.88 95.8568 93.56 93.6667 93.56H47.6767C45.5167 93.56 43.8067 92.88 42.5567 91.52C41.3067 90.16 40.6767 88.31 40.6767 85.98V22.58C40.6767 20.22 41.3067 18.37 42.5567 17.02C43.8167 15.67 45.5267 15 47.6867 15H93.6768C95.8668 15 97.5768 15.67 98.8167 17.02C100.057 18.37 100.677 20.22 100.677 22.58V85.98C100.677 88.31 100.057 90.16 98.8167 91.52H98.8067ZM93.5567 24.04C93.5567 23.38 93.3967 22.9 93.0867 22.58C92.7767 22.26 92.2967 22.11 91.6667 22.11H49.6867C49.0567 22.11 48.5867 22.27 48.2667 22.58C47.9467 22.89 47.7967 23.38 47.7967 24.04V84.56C47.7967 85.19 47.9567 85.66 48.2667 85.98C48.5767 86.3 49.0567 86.45 49.6867 86.45H91.6667C92.2967 86.45 92.7667 86.29 93.0867 85.98C93.4067 85.67 93.5567 85.19 93.5567 84.56V24.04ZM75.6667 37.85C74.6967 37.85 74.2067 37.36 74.2067 36.39V29.61C74.2067 28.64 74.6967 28.15 75.6667 28.15H82.6267C83.5467 28.15 84.0067 28.63 84.0067 29.61V36.39C84.0067 37.36 83.5467 37.85 82.6267 37.85H75.6667ZM75.6667 51.8C74.6967 51.8 74.2067 51.32 74.2067 50.35V43.61C74.2067 42.64 74.6967 42.15 75.6667 42.15H82.6267C83.5467 42.15 84.0067 42.64 84.0067 43.61V50.35C84.0067 51.32 83.5467 51.8 82.6267 51.8H75.6667ZM75.6667 65.8C74.6967 65.8 74.2067 65.3 74.2067 64.31V57.57C74.2067 56.6 74.6967 56.11 75.6667 56.11H82.6267C83.5467 56.11 84.0067 56.59 84.0067 57.57V64.31C84.0067 65.31 83.5467 65.8 82.6267 65.8H75.6667ZM78.1468 89.84V77.74C78.1468 77.01 77.7667 76.65 77.0167 76.65H64.3367C63.5867 76.65 63.2067 77.01 63.2067 77.74V89.84H57.6667V75.88C57.6667 74.33 58.0267 73.16 58.7567 72.4C59.4867 71.64 60.5867 71.25 62.0767 71.25H79.2767C80.7568 71.25 81.8667 71.63 82.5867 72.4C83.3167 73.17 83.6768 74.33 83.6768 75.88V89.84H78.1367H78.1468ZM58.7567 37.85C57.8067 37.85 57.3367 37.36 57.3367 36.39V29.61C57.3367 28.64 57.8067 28.15 58.7567 28.15H65.7167C66.6667 28.15 67.1367 28.63 67.1367 29.61V36.39C67.1367 37.36 66.6667 37.85 65.7167 37.85H58.7567ZM58.7567 51.8C57.8067 51.8 57.3367 51.32 57.3367 50.35V43.61C57.3367 42.64 57.8067 42.15 58.7567 42.15H65.7167C66.6667 42.15 67.1367 42.64 67.1367 43.61V50.35C67.1367 51.32 66.6667 51.8 65.7167 51.8H58.7567ZM58.7567 65.8C57.8067 65.8 57.3367 65.3 57.3367 64.31V57.57C57.3367 56.6 57.8067 56.11 58.7567 56.11H65.7167C66.6667 56.11 67.1367 56.59 67.1367 57.57V64.31C67.1367 65.31 66.6667 65.8 65.7167 65.8H58.7567ZM19.6267 93.56C17.4667 93.56 15.7667 92.88 14.5267 91.52C13.2867 90.16 12.6667 88.31 12.6667 85.98V40.76C12.6667 38.43 13.2867 36.59 14.5267 35.24C15.7667 33.89 17.4667 33.22 19.6267 33.22H44.6967V40.29H21.6267C20.9967 40.29 20.5267 40.45 20.2067 40.76C19.8867 41.07 19.7367 41.55 19.7367 42.18V84.56C19.7367 85.19 19.8967 85.66 20.2067 85.98C20.5167 86.3 20.9967 86.45 21.6267 86.45H47.2767V93.56H19.6267ZM27.3467 54.03C26.5467 54.03 26.1467 53.63 26.1467 52.83V47.26C26.1467 46.43 26.5467 46.02 27.3467 46.02H33.1067C33.8867 46.02 34.2767 46.43 34.2767 47.26V52.83C34.2767 53.63 33.8867 54.03 33.1067 54.03H27.3467ZM27.3467 67.51C26.5467 67.51 26.1467 67.1 26.1467 66.27V60.7C26.1467 59.87 26.5467 59.46 27.3467 59.46H33.1067C33.8867 59.46 34.2767 59.87 34.2767 60.7V66.27C34.2767 67.1 33.8867 67.51 33.1067 67.51H27.3467ZM27.3467 80.95C26.5467 80.95 26.1467 80.54 26.1467 79.71V74.13C26.1467 73.33 26.5467 72.93 27.3467 72.93H33.1067C33.8867 72.93 34.2767 73.33 34.2767 74.13V79.71C34.2767 80.54 33.8867 80.95 33.1067 80.95H27.3467Z" fill="#396FFF"/>
</g>
<path d="M85.4567 103.78C85.1167 103.78 84.7367 103.72 84.3167 103.59C83.9467 103.48 83.5767 103.33 83.1967 103.14C79.8767 101.32 77.0667 99.69 74.8067 98.27C72.4767 96.81 70.5567 95.35 69.1167 93.94C67.5967 92.46 66.4867 90.82 65.7967 89.08C65.1167 87.36 64.7667 85.34 64.7667 83.08V65.89C64.7667 64.15 65.1467 62.86 65.9367 61.95C66.6267 61.15 67.6167 60.48 68.9667 59.9C69.4867 59.68 70.2167 59.39 71.1467 59.04C72.0667 58.7 73.0767 58.33 74.1967 57.93L80.4867 55.7C81.3967 55.38 82.1067 55.13 82.6167 54.96C83.1067 54.82 83.5467 54.72 84.0067 54.64C84.4967 54.55 84.9867 54.5 85.4567 54.5C85.9467 54.5 86.4567 54.55 86.9667 54.65C87.4067 54.74 87.8167 54.83 88.2067 54.93C88.7767 55.09 89.4967 55.31 90.4367 55.64C91.3467 55.95 92.3467 56.31 93.4567 56.7C94.5567 57.1 95.6567 57.49 96.7567 57.9C97.8667 58.31 98.8767 58.68 99.7867 59.03C100.717 59.39 101.437 59.67 101.947 59.89C103.307 60.45 104.317 61.13 105.007 61.95C105.777 62.87 106.157 64.15 106.157 65.88V83.07C106.157 85.33 105.807 87.34 105.127 89.07C104.437 90.82 103.317 92.45 101.797 93.92C100.357 95.32 98.4467 96.77 96.1167 98.24C93.8567 99.66 91.0467 101.3 87.7767 103.09C87.3467 103.31 86.9667 103.46 86.6067 103.56C86.1767 103.69 85.7967 103.75 85.4367 103.75L85.4567 103.78Z" fill="#396FFF"/>
<path d="M85.4567 56.01C85.8467 56.01 86.2567 56.05 86.6767 56.13C87.0967 56.21 87.4867 56.3 87.8467 56.39C88.3467 56.53 89.0467 56.75 89.9467 57.06C90.8467 57.37 91.8467 57.72 92.9467 58.12C94.0467 58.51 95.1467 58.91 96.2467 59.31C97.3467 59.71 98.3467 60.09 99.2567 60.44C100.167 60.79 100.867 61.07 101.367 61.28C102.507 61.75 103.337 62.3 103.867 62.93C104.397 63.56 104.667 64.55 104.667 65.9V83.09C104.667 85.17 104.357 86.98 103.747 88.54C103.137 90.09 102.137 91.54 100.767 92.87C99.3967 94.2 97.5867 95.58 95.3367 97C93.0867 98.42 90.3267 100.02 87.0767 101.81C86.7767 101.96 86.4867 102.08 86.2067 102.16C85.9267 102.24 85.6767 102.28 85.4667 102.28C85.2667 102.28 85.0267 102.24 84.7467 102.16C84.4667 102.08 84.1767 101.96 83.8667 101.81C80.6067 100.02 77.8567 98.42 75.6067 97.01C73.3567 95.6 71.5467 94.23 70.1767 92.88C68.8067 91.54 67.8167 90.09 67.1967 88.54C66.5867 86.99 66.2767 85.17 66.2767 83.09V65.9C66.2767 64.55 66.5467 63.57 67.0867 62.94C67.6267 62.32 68.4567 61.77 69.5767 61.28C70.0767 61.07 70.7767 60.79 71.6867 60.45C72.5967 60.11 73.6067 59.74 74.7067 59.35C75.8167 58.96 76.9067 58.57 78.0067 58.18C79.0967 57.79 80.0967 57.44 80.9967 57.12C81.8967 56.8 82.5967 56.56 83.0967 56.39C83.4767 56.28 83.8667 56.19 84.2767 56.12C84.6867 56.04 85.0767 56.01 85.4567 56.01ZM85.4567 53.01C84.8967 53.01 84.3167 53.07 83.7267 53.17C83.2267 53.26 82.7467 53.37 82.2867 53.5L82.2167 53.52L82.1467 53.54C81.6367 53.71 80.9167 53.96 79.9967 54.28L77.0067 55.34C75.9167 55.73 74.8167 56.12 73.7067 56.51C72.5867 56.91 71.5567 57.28 70.6367 57.63C69.6767 57.99 68.9467 58.28 68.4067 58.51C66.8267 59.19 65.6667 59.99 64.8167 60.97C63.7967 62.15 63.2767 63.8 63.2767 65.89V83.08C63.2767 85.53 63.6567 87.73 64.4067 89.63C65.1767 91.57 66.4067 93.38 68.0767 95.01C69.5967 96.5 71.5967 98.02 74.0167 99.53C76.3067 100.96 79.1367 102.6 82.4267 104.41L82.4767 104.44L82.5267 104.47C82.9867 104.7 83.4467 104.88 83.8867 105.02C84.4567 105.19 84.9667 105.27 85.4567 105.27C85.9467 105.27 86.4767 105.19 87.0467 105.02C87.4967 104.89 87.9567 104.7 88.4067 104.48L88.4567 104.45L88.5067 104.42C91.8067 102.61 94.6467 100.96 96.9267 99.52C99.3467 98 101.337 96.48 102.857 95.01C104.527 93.39 105.767 91.58 106.537 89.63C107.287 87.73 107.667 85.53 107.667 83.08V65.89C107.667 63.82 107.157 62.17 106.167 60.99C105.317 59.98 104.117 59.17 102.517 58.5C102.007 58.28 101.257 57.99 100.327 57.63C99.4067 57.28 98.3867 56.9 97.2667 56.49C96.1567 56.09 95.0567 55.69 93.9567 55.29C92.8467 54.89 91.8267 54.53 90.9167 54.22C89.9467 53.89 89.1967 53.65 88.6267 53.49H88.5967L88.5667 53.47C88.1567 53.37 87.7267 53.27 87.2667 53.18C86.6567 53.06 86.0467 53 85.4567 53V53.01Z" fill="#EEF3FF"/>
<path d="M85.0667 97.42V60.36C84.9567 60.38 84.8467 60.39 84.7267 60.42C84.6067 60.44 84.4567 60.49 84.2667 60.57C83.6567 60.81 82.9367 61.09 82.0967 61.4C81.2567 61.71 80.3567 62.04 79.3867 62.39C78.4267 62.74 77.4567 63.09 76.4767 63.44C75.4967 63.79 74.5667 64.12 73.6767 64.44C72.7867 64.76 72.0067 65.04 71.3267 65.28C71.0067 65.39 70.7967 65.54 70.6867 65.75C70.5767 65.96 70.5267 66.25 70.5267 66.65V82.27C70.5267 83.95 70.7567 85.38 71.2167 86.56C71.6767 87.73 72.4367 88.82 73.4767 89.82C74.5167 90.82 75.9167 91.88 77.6767 92.99C79.4367 94.1 81.5867 95.43 84.1467 96.98C84.3467 97.1 84.5167 97.2 84.6567 97.26C84.7967 97.33 84.9367 97.38 85.0567 97.43L85.0667 97.42Z" fill="white"/>
</svg>
