<svg width="24" height="24" viewBox="0 0 24 24" fill="none" xmlns="http://www.w3.org/2000/svg">
<path d="M12 22.8499C10.4833 22.8499 9.06675 22.5659 7.75025 21.9979C6.43392 21.4297 5.28884 20.6587 4.315 19.6849C3.34117 18.7111 2.57017 17.566 2.002 16.2497C1.434 14.9332 1.15 13.5166 1.15 11.9999C1.15 10.4832 1.434 9.06665 2.002 7.75015C2.57017 6.43382 3.34117 5.28874 4.315 4.3149C5.28884 3.34107 6.43392 2.57007 7.75025 2.0019C9.06675 1.4339 10.4833 1.1499 12 1.1499C13.0833 1.1499 14.1083 1.29157 15.075 1.5749C16.0417 1.85824 16.95 2.26657 17.8 2.7999L15.475 5.1499C14.9417 4.88324 14.3888 4.6749 13.8165 4.5249C13.2443 4.3749 12.6388 4.2999 12 4.2999C9.8665 4.2999 8.04975 5.04574 6.54975 6.5374C5.04992 8.02907 4.3 9.8499 4.3 11.9999C4.3 14.1499 5.04992 15.9707 6.54975 17.4624C8.04958 18.9541 9.86625 19.6999 11.9998 19.6999C14.1333 19.6999 15.95 18.9541 17.45 17.4624C18.95 15.9707 19.7 14.1499 19.7 11.9999C19.7 11.8056 19.6917 11.6112 19.675 11.4169C19.6583 11.2224 19.6333 11.0334 19.6 10.8499L22.2 8.2499C22.4167 8.83324 22.5792 9.43699 22.6875 10.0612C22.7958 10.6855 22.85 11.3282 22.85 11.9892C22.85 13.513 22.566 14.9332 21.998 16.2497C21.4298 17.566 20.6588 18.7111 19.685 19.6849C18.7112 20.6587 17.5661 21.4297 16.2498 21.9979C14.9333 22.5659 13.5167 22.8499 12 22.8499ZM10.525 17.0999L5.9 12.4749L7.975 10.3749L10.525 12.9249L20.75 2.6749L22.85 4.7749L10.525 17.0999Z" fill="#1A1E27"/>
</svg>
