<svg width="100" height="32" viewBox="0 0 100 32" fill="none" xmlns="http://www.w3.org/2000/svg">
<g clip-path="url(#clip0_47_22)">
<path fill-rule="evenodd" clip-rule="evenodd" d="M19.6801 5.07141C21.1245 5.07141 22.2935 3.93566 22.2935 2.53571C22.2935 1.13499 21.1245 0 19.6801 0H2.61347C1.1698 0 0 1.13499 0 2.53571C0 3.93566 1.1698 5.07141 2.61347 5.07141H8.53369V22.3818C8.53369 23.7825 9.70428 24.9175 11.1472 24.9175C12.5908 24.9175 13.7606 23.7825 13.7606 22.3818V5.07217H19.6816L19.6801 5.07141Z" fill="#1A1E27"/>
<path fill-rule="evenodd" clip-rule="evenodd" d="M25.3688 19.846C23.3477 19.846 21.7053 18.1241 21.7053 16.0075C21.7053 13.8908 23.3485 12.169 25.3681 12.169C27.3884 12.169 29.0316 13.8908 29.0316 16.0075C29.0316 18.1241 27.3884 19.846 25.3681 19.846M25.3681 7.09758C20.4658 7.09758 16.4791 11.0947 16.4791 16.0075C16.4791 20.921 20.4658 24.9174 25.3681 24.9174C30.2703 24.9174 34.2586 20.921 34.2586 16.0075C34.2586 11.0955 30.2703 7.09758 25.3681 7.09758ZM88.6634 13.4627C88.0531 13.4627 87.7636 12.7073 88.2424 12.3391C88.906 11.8281 89.7252 11.5252 90.6118 11.5252C91.4983 11.5252 92.3176 11.8289 92.9811 12.3391C93.4584 12.7073 93.1705 13.4627 92.5601 13.4627H88.6634ZM90.6118 7.08696C85.8895 7.08696 82.0468 10.9437 82.0468 15.6818C82.0468 20.5976 86.0499 24.9098 90.6118 24.9098C92.5273 24.9098 94.3395 24.2895 95.8505 23.115C96.8364 22.3498 96.996 20.9529 96.2065 19.9955C95.4162 19.0397 93.978 18.8848 92.9905 19.6501C92.3004 20.1876 91.4772 20.4715 90.6118 20.4715C89.2072 20.4715 87.8551 19.3798 87.1423 17.9009H96.8896C98.1525 17.9009 99.1768 16.9071 99.1768 15.6818C99.1768 10.9429 95.334 7.08771 90.6118 7.08771V7.08696ZM77.7361 0.100098C76.2925 0.100098 75.1219 1.3224 75.1219 2.83092V22.1774C75.1219 23.6852 76.2924 24.9075 77.7353 24.9075C79.1798 24.9075 80.3488 23.6852 80.3488 22.1774V2.83092C80.3488 1.3224 79.1798 0.100098 77.7353 0.100098M48.5818 15.9429C48.5536 18.0497 46.9136 19.7556 44.8971 19.7556C42.8666 19.7556 41.2117 18.0224 41.2117 15.8928C41.2117 13.7633 42.8666 12.0301 44.8971 12.0301C46.9136 12.0301 48.5536 13.736 48.5826 15.8427V15.9429H48.5818ZM51.2094 6.92752C50.3408 6.92752 49.574 7.34204 49.0943 7.97521C47.8439 7.31016 46.4151 6.92752 44.8971 6.92752C39.9573 6.92752 35.9519 10.9406 35.9519 15.8928C35.9519 20.8458 39.9581 24.8589 44.8971 24.8589C46.189 24.8589 47.4167 24.5757 48.5255 24.0785C48.2391 25.675 46.8001 26.8974 45.0669 26.8974C44.0654 26.8974 43.1154 26.4722 42.4535 25.7662C42.43 25.7297 42.3963 25.6978 42.3635 25.6659C41.8838 25.2051 41.2257 24.9181 40.502 24.9181C39.045 24.9181 37.8697 26.0622 37.8697 27.4721C37.8697 28.1736 38.1616 28.8075 38.6365 29.2683L38.6404 29.2729C40.2813 30.9879 42.6076 31.9999 45.0661 31.9999C49.9026 31.9999 53.8416 28.1789 53.8416 23.4863V9.48069C53.8416 8.07163 52.6616 6.92752 51.2094 6.92752ZM68.1664 15.9429C68.1383 18.0497 66.4974 19.7556 64.4818 19.7556C62.4504 19.7556 60.7963 18.0224 60.7963 15.8928C60.7963 13.7633 62.4504 12.0301 64.4818 12.0301C66.4974 12.0301 68.1383 13.736 68.1672 15.8427V15.9429H68.1664ZM70.7932 6.92752C69.9247 6.92752 69.1578 7.34204 68.679 7.97521C67.4293 7.31016 65.999 6.92752 64.4818 6.92752C59.5412 6.92752 55.5373 10.9406 55.5373 15.8928C55.5373 20.8458 59.542 24.8589 64.4818 24.8589C65.7736 24.8589 67.0013 24.5757 68.1101 24.0785C67.8245 25.675 66.3855 26.8974 64.6515 26.8974C63.65 26.8974 62.7008 26.4722 62.0381 25.7662C62.0146 25.7297 61.9817 25.6978 61.9489 25.6659C61.4684 25.2051 60.8104 24.9181 60.0866 24.9181C58.6304 24.9181 57.4551 26.0622 57.4551 27.4721C57.4551 28.1736 57.747 28.8075 58.2211 29.2683L58.2258 29.2729C59.8659 30.9879 62.193 31.9999 64.6515 31.9999C69.4873 31.9999 73.427 28.1789 73.427 23.4863V9.48069C73.427 8.07163 72.2471 6.92752 70.794 6.92752H70.7932Z" fill="#1A1E27"/>
</g>
<defs>
<clipPath id="clip0_47_22">
<rect width="100" height="32" fill="white"/>
</clipPath>
</defs>
</svg>
