<svg width="28" height="28" viewBox="0 0 28 28" fill="none" xmlns="http://www.w3.org/2000/svg">
<path opacity="0.5" d="M24.8254 16.5967C24.6939 17.1355 24.2881 17.5981 23.6302 17.9667C22.9719 18.3355 22.0756 18.6013 20.998 18.7488C18.8439 19.0436 16.0005 18.8608 12.9817 18.1239C9.96297 17.387 7.35512 16.2391 5.57911 14.9849C4.69068 14.3575 4.01765 13.7086 3.60339 13.078C3.1893 12.4477 3.04232 11.8501 3.17384 11.3113C3.30535 10.7726 3.71114 10.31 4.36908 9.94133C5.0273 9.57253 5.92363 9.30671 7.00122 9.15923C9.15535 8.86442 11.9988 9.04722 15.0175 9.78413C18.0363 10.521 20.6441 11.6689 22.4201 12.9231C23.3086 13.5505 23.9816 14.1995 24.3959 14.8301C24.8099 15.4604 24.9569 16.0579 24.8254 16.5967Z" stroke="#6151F3" stroke-width="0.329412"/>
<path fill-rule="evenodd" clip-rule="evenodd" d="M16.5095 12.3846C15.3478 12.3846 14.4061 11.4399 14.4061 10.2747C14.4061 9.10916 15.3478 8.16413 16.5095 8.16413C17.6713 8.16413 18.6129 9.10916 18.6129 10.2747C18.6129 11.4399 17.6713 12.3846 16.5095 12.3846ZM16.5095 6.86011C15.559 6.86011 14.7002 7.25109 14.083 7.88168C13.3935 8.58567 12.443 8.96979 11.4592 8.96979H11.332C10.6644 8.96979 10.0191 8.77045 9.43893 8.43859C9.13319 8.26438 8.77963 8.16442 8.40245 8.16442C7.241 8.16442 6.29932 9.10916 6.29932 10.2747C6.29932 11.4399 7.241 12.3846 8.40245 12.3846C8.77963 12.3846 9.13319 12.2847 9.43893 12.1102C10.0191 11.7786 10.6644 11.579 11.332 11.579H11.4592C12.443 11.579 13.3935 11.9634 14.083 12.6677C14.7002 13.298 15.559 13.689 16.5095 13.689C18.3892 13.689 19.913 12.1602 19.913 10.2747C19.913 8.3889 18.3892 6.86011 16.5095 6.86011ZM11.4888 19.7139C10.3274 19.7139 9.38569 18.7691 9.38569 17.6033C9.38569 16.4381 10.3274 15.4936 11.4891 15.4936C12.6506 15.4936 13.5925 16.4384 13.5925 17.6033C13.5925 18.7691 12.6508 19.7139 11.4888 19.7139ZM19.5962 15.4936C19.2051 15.4936 18.839 15.6007 18.5258 15.7878C17.9986 16.1019 17.4099 16.299 16.7962 16.299H16.4144C15.4628 16.299 14.5763 15.8806 13.9071 15.202C13.2905 14.5766 12.4351 14.1893 11.4891 14.1893C9.60944 14.1893 8.08561 15.7178 8.08561 17.6033C8.08561 19.4894 9.60944 21.0182 11.4891 21.0182C12.4351 21.0182 13.2905 20.6306 13.9071 20.0055C14.5761 19.3266 15.4628 18.9079 16.4144 18.9079H16.7959C17.4099 18.9079 17.9986 19.105 18.5261 19.4194C18.8393 19.6062 19.2051 19.7136 19.5962 19.7136C20.7576 19.7136 21.6993 18.7691 21.6993 17.6033C21.6993 16.4381 20.7576 15.4936 19.5962 15.4936Z" fill="#6151F3"/>
<path d="M23.7173 12.6825C24.2631 12.6825 24.7055 13.1987 24.7055 13.8354C24.7055 13.1987 25.148 12.6825 25.6938 12.6825C25.148 12.6825 24.7055 12.1663 24.7055 11.5295C24.7055 12.1663 24.2631 12.6825 23.7173 12.6825Z" fill="#6151F3"/>
<path d="M2.96423 7.74132C3.51002 7.74132 3.95247 8.25751 3.95247 8.89426C3.95247 8.25751 4.39492 7.74132 4.9407 7.74132C4.39492 7.74132 3.95247 7.22513 3.95247 6.58838C3.95247 7.22513 3.51002 7.74132 2.96423 7.74132Z" fill="#6151F3"/>
<path d="M4.94043 18.2826C5.48621 18.2826 5.92867 18.7988 5.92867 19.4355C5.92867 18.7988 6.37112 18.2826 6.9169 18.2826C6.37112 18.2826 5.92867 17.7664 5.92867 17.1296C5.92867 17.7664 5.48621 18.2826 4.94043 18.2826Z" fill="#6151F3"/>
</svg>
